<svg id="Layer_1" data-name="Layer 1" xmlns="http://www.w3.org/2000/svg" viewBox="0 0 300 300"><defs><style>.cls-1{fill:#e6e7e8;stroke:#231f20;stroke-width:5px;}.cls-1,.cls-2,.cls-4{stroke-linecap:round;stroke-miterlimit:10;}.cls-2,.cls-3{fill:#40e0d0;}.cls-2,.cls-4{stroke:#40e0d0;}.cls-4{fill:none;}</style></defs><title>Atomic-Design__Molecule</title><ellipse class="cls-1" cx="150.75" cy="81.94" rx="72.75" ry="68.06"/><ellipse class="cls-2" cx="150.62" cy="81.97" rx="53.48" ry="50.02"/><ellipse class="cls-1" cx="77.75" cy="199.94" rx="72.75" ry="68.06"/><ellipse class="cls-2" cx="77.62" cy="199.97" rx="53.48" ry="50.02"/><ellipse class="cls-1" cx="223.75" cy="199.94" rx="72.75" ry="68.06"/><ellipse class="cls-2" cx="223.62" cy="199.97" rx="53.48" ry="50.02"/><rect class="cls-3" x="97.38" y="127.83" width="32.38" height="25.26" rx="10" ry="10" transform="translate(-64.86 168.59) rotate(-60)"/><rect class="cls-4" x="97.38" y="127.83" width="32.38" height="25.26" rx="10" ry="10" transform="translate(-64.86 168.59) rotate(-60)"/><rect class="cls-3" x="173.94" y="125.27" width="25.26" height="32.38" rx="10" ry="10" transform="matrix(0.83, -0.56, 0.56, 0.83, -47.16, 127.72)"/><rect class="cls-4" x="173.94" y="125.27" width="25.26" height="32.38" rx="10" ry="10" transform="matrix(0.83, -0.56, 0.56, 0.83, -47.16, 127.72)"/><rect class="cls-3" x="134.38" y="187.83" width="32.38" height="25.26" rx="10" ry="10"/><rect class="cls-4" x="134.38" y="187.83" width="32.38" height="25.26" rx="10" ry="10"/></svg>