<svg id="Layer_1" data-name="Layer 1" xmlns="http://www.w3.org/2000/svg" viewBox="0 0 1856.68 1024"><defs><style>.cls-1{fill:#2c3e50;}.cls-2,.cls-3,.cls-6{fill:none;}.cls-2{stroke:#54d0ba;}.cls-2,.cls-3,.cls-5,.cls-6{stroke-miterlimit:10;}.cls-3,.cls-5,.cls-6{stroke:#32669a;}.cls-3{stroke-width:14px;}.cls-4,.cls-5{fill:#32669a;}.cls-6{stroke-width:15px;}</style></defs><title>BBG-Logo-Rev-2</title><rect class="cls-1" x="833.18" y="0.5" width="1023" height="1023"/><path d="M1966.5-113V909H944.5V-113h1022m1-1H943.5V910h1024V-114Z" transform="translate(-110.82 114)"/><path class="cls-2" d="M197,101.5h-1" transform="translate(-110.82 114)"/><path class="cls-3" d="M211.5,301c63.9,0,115.71,41,115.71,91.5S275.4,484,211.5,484" transform="translate(-110.82 114)"/><rect class="cls-4" y="224.25" width="11.68" height="380.75"/><ellipse class="cls-3" cx="406.68" cy="422.8" rx="200" ry="190.45"/><line class="cls-3" x1="100.68" y1="598" x2="0.68" y2="598"/><polygon class="cls-5" points="1.68 422.8 99.68 421.85 99.68 408.51 1.68 409.46 1.68 422.8"/><line class="cls-6" x1="100.18" y1="227" x2="0.18" y2="227"/><path class="cls-6" d="M208.5,112.88c65,0,117.71,42.34,117.71,94.56S273.51,302,208.5,302" transform="translate(-110.82 114)"/><line class="cls-3" x1="601.68" y1="414.23" x2="401.68" y2="414.23"/><line class="cls-3" x1="408.68" y1="417.08" x2="408.55" y2="607.54"/></svg>