<svg id="Layer_1" data-name="Layer 1" xmlns="http://www.w3.org/2000/svg" viewBox="0 0 299.47 215"><defs><style>.cls-1{fill:#e6e7e8;stroke:#231f20;stroke-width:5px;}.cls-1,.cls-2{stroke-linecap:round;stroke-miterlimit:10;}.cls-2{fill:#40e0d0;stroke:#40e0d0;}</style></defs><title>Atomic-Design__Organisms</title><ellipse class="cls-1" cx="37.73" cy="37.5" rx="35.23" ry="35"/><ellipse class="cls-2" cx="37.67" cy="37.52" rx="25.9" ry="25.72"/><ellipse class="cls-1" cx="111.73" cy="37.5" rx="35.23" ry="35"/><ellipse class="cls-2" cx="111.67" cy="37.52" rx="25.9" ry="25.72"/><ellipse class="cls-1" cx="37.73" cy="107.5" rx="35.23" ry="35"/><ellipse class="cls-2" cx="37.67" cy="107.52" rx="25.9" ry="25.72"/><ellipse class="cls-1" cx="111.73" cy="107.5" rx="35.23" ry="35"/><ellipse class="cls-2" cx="111.67" cy="107.52" rx="25.9" ry="25.72"/><ellipse class="cls-2" cx="74.78" cy="37.43" rx="3.8" ry="3.63"/><ellipse class="cls-2" cx="74.78" cy="107.43" rx="3.8" ry="3.63"/><ellipse class="cls-1" cx="185.73" cy="37.5" rx="35.23" ry="35"/><ellipse class="cls-2" cx="185.67" cy="37.52" rx="25.9" ry="25.72"/><ellipse class="cls-1" cx="259.73" cy="37.5" rx="35.23" ry="35"/><ellipse class="cls-2" cx="259.67" cy="37.52" rx="25.9" ry="25.72"/><ellipse class="cls-1" cx="185.73" cy="107.5" rx="35.23" ry="35"/><ellipse class="cls-2" cx="185.67" cy="107.52" rx="25.9" ry="25.72"/><ellipse class="cls-1" cx="259.73" cy="107.5" rx="35.23" ry="35"/><ellipse class="cls-2" cx="259.67" cy="107.52" rx="25.9" ry="25.72"/><ellipse class="cls-2" cx="222.78" cy="37.43" rx="3.8" ry="3.63"/><ellipse class="cls-2" cx="222.78" cy="107.43" rx="3.8" ry="3.63"/><ellipse class="cls-2" cx="148.78" cy="107.43" rx="3.8" ry="3.63"/><ellipse class="cls-2" cx="148.78" cy="35.43" rx="3.8" ry="3.63"/><ellipse class="cls-1" cx="39.73" cy="177.5" rx="35.23" ry="35"/><ellipse class="cls-2" cx="39.67" cy="177.52" rx="25.9" ry="25.72"/><ellipse class="cls-1" cx="113.73" cy="177.5" rx="35.23" ry="35"/><ellipse class="cls-2" cx="113.67" cy="177.52" rx="25.9" ry="25.72"/><ellipse class="cls-2" cx="76.78" cy="177.43" rx="3.8" ry="3.63"/><ellipse class="cls-1" cx="187.73" cy="177.5" rx="35.23" ry="35"/><ellipse class="cls-2" cx="187.67" cy="177.52" rx="25.9" ry="25.72"/><ellipse class="cls-1" cx="261.73" cy="177.5" rx="35.23" ry="35"/><ellipse class="cls-2" cx="261.67" cy="177.52" rx="25.9" ry="25.72"/><ellipse class="cls-2" cx="224.78" cy="177.43" rx="3.8" ry="3.63"/><ellipse class="cls-2" cx="150.78" cy="177.43" rx="3.8" ry="3.63"/></svg>